<?xml version="1.0" encoding="utf-8"?>
<!-- Generator: Adobe Illustrator 24.3.0, SVG Export Plug-In . SVG Version: 6.00 Build 0)  -->
<svg version="1.1" xmlns="http://www.w3.org/2000/svg" xmlns:xlink="http://www.w3.org/1999/xlink" x="0px" y="0px"
	 viewBox="0 0 261.3 238" style="enable-background:new 0 0 261.3 238;" xml:space="preserve">
<style type="text/css">
	.st0{fill:#FFFFFF;}
	.st1{display:none;}
	.st2{display:inline;}
	.st3{fill:#676767;}
	.st4{fill:#99B183;}
</style>
<g id="Blanc_1_">
	<g>
		<path class="st0" d="M151.9,92.6c0.1,0,0.2,0,0.3,0C152.1,92.6,152,92.6,151.9,92.6z"/>
		<path class="st0" d="M173,105.3c-2.1,2.1-4,4.3-5.8,6.6c-1.8,2.3-3.4,4.6-4.9,7c-1.5,2.4-2.9,4.7-4.3,7c-1,0.3-2,0.6-3,0.9
			c-1,0.3-2.1,0.7-3.2,1l0.7,1.8c0.7-0.3,1.4-0.5,2.1-0.8c0.7-0.2,1.4-0.5,2.1-0.7c-1.4,2.4-2.9,4.6-4.4,6.7c-1.5,2.1-3,3.9-4.7,5.5
			c-1.6,1.6-3.5,2.8-5.4,3.7c-2,0.9-4.1,1.4-6.6,1.4c-1.7,0-3.3-0.2-4.8-0.7c-1.5-0.5-2.8-1.1-3.9-2c-1.1-0.8-2-1.8-2.7-2.9
			c-0.7-1.1-1-2.3-1-3.6c0-1.4,0.3-2.7,0.8-3.7c0.5-1,1.2-1.8,2.1-2.5c0.8-0.6,1.8-1.1,2.9-1.4s2.2-0.4,3.3-0.4c1,0,2.1,0.1,3.1,0.3
			c1.1,0.2,2.1,0.5,3.1,0.9c1,0.4,2,0.9,2.9,1.4c0.9,0.6,1.7,1.2,2.4,1.9l1.4-1c-0.9-1-1.8-2-2.9-2.8c-1.1-0.8-2.3-1.5-3.5-2.1
			c-1.2-0.6-2.5-1-3.8-1.3c-1.3-0.3-2.6-0.5-3.9-0.5c-1.6,0-3.1,0.2-4.5,0.6c-1.4,0.4-2.6,1-3.7,1.9c-1.1,0.8-1.9,1.9-2.5,3.1
			c-0.6,1.2-0.9,2.6-0.9,4.2c0,0.8,0.1,1.6,0.3,2.3c-3.2,0.6-6.1,0.5-7.6,0.3c-0.3,0-0.7-0.1-1-0.1c0.7-1.8,1.5-3.8,2.3-6
			c0.9-2.3,2-4.8,3.1-7.5c1.1-2.6,2.4-5.4,3.7-8.2c1.3-2.8,2.7-5.7,4.2-8.5c1.4-2.7,2.5-5,3.4-7c0.9-2,1.3-3.9,1.3-5.4
			c0-0.8-0.1-1.6-0.4-2.3c-0.3-0.7-0.7-1.2-1.2-1.7c-0.5-0.5-1-0.8-1.7-1.1c-0.6-0.3-1.3-0.4-1.9-0.4c-1.6,0-3.5,0.6-5.5,1.9
			c-2,1.2-4.1,2.9-6.3,5c-2.2,2.1-4.6,4.6-6.9,7.4c-2.3,2.7-4.7,5.6-7,8.7c-0.8-1.3-1.7-2.6-2.7-3.7c-1-1.3-2.1-2.3-3.3-3.2
			c-1.2-0.9-2.4-1.6-3.7-2.2c-1.3-0.5-2.7-0.8-4.1-0.8c-1.3,0-2.5,0.3-3.7,0.9c-1.1,0.6-2.1,1.4-3,2.4c-0.8,1-1.5,2.2-1.9,3.5
			c-0.5,1.3-0.7,2.7-0.7,4.2c0,1.8,0.3,3.5,0.8,5.1c0.5,1.6,1.2,3.1,2.1,4.5c0.9,1.4,2,2.7,3.3,3.9c1.2,1.1,2.5,2.2,3.9,3.2
			c-1.3,1.7-2.6,3.4-4.1,5c-0.7,0.8-1.5,1.6-2.2,2.3l-0.3,0.3c-0.1,0.1-14,13.2-34.7,0.8c-13.6-8.1-24.5-10.6-32.5-7.5
			c-5.7,2.2-8,6.8-8.6,8.1c-1.5,3.6-0.2,8,2.8,10.2c1,0.7,2.2,1.1,3.4,1.1c1.9,0,4.7-0.9,7.4-5.4l0.1-0.2l-1.8-1.4l-0.2,0.3
			c-1.5,2.5-3.1,3.9-4.8,4.3c-1.5,0.3-2.6-0.3-3.1-0.6c-2.4-1.7-2.9-4.9-2-7c0.5-1.1,2.4-4.9,7.3-6.8c9.2-3.6,21.8,2,30.8,7.3
			c11.5,6.9,21,6.2,26.9,4.4c6.4-1.9,10.1-5.4,10.3-5.6l0.3-0.4c0.8-0.8,1.6-1.6,2.4-2.5c1.6-1.8,3.1-3.6,4.4-5.4
			c1.4,0.9,3,1.8,4.5,2.5c1.6,0.8,3.3,1.5,4.9,2.2c1.6,0.6,3.3,1.2,4.9,1.7c1.5,0.5,2.9,0.9,4.3,1.3l-1.9,5.2l4.1,1.5l0.3,0.2v-0.4
			c0-0.1,0.1-0.3,0.5-1.5c0.3-1,0.8-2.3,1.5-4.1c0,0,0.6,0.1,1.5,0.2c0.6,0.1,1.2,0.1,1.6,0.2c2,0.2,4.7,0.2,7.4-0.2l0,0
			c0.1,0.1,0.1,0.2,0.2,0.3c1,1.6,2.4,2.9,4,4c1.6,1.1,3.5,1.9,5.6,2.5s4.1,0.8,6.1,0.8c3.1,0,5.9-0.5,8.2-1.5
			c2.4-1,4.6-2.4,6.6-4.3c2-1.8,3.9-4.1,5.7-6.6c1.8-2.6,3.6-5.5,5.4-8.7c1.2-0.3,2.3-0.6,3.4-0.8c1.1-0.3,2.2-0.5,3.3-0.7L169,126
			c-0.4,0.7-0.8,1.5-1.3,2.3c-0.5,0.8-1,1.6-1.5,2.3s-1,1.4-1.4,2c-0.4,0.6-0.8,1-1,1.3l2.6,2.4c0.6-0.9,1.2-1.8,1.7-2.8
			c0.6-1,1.1-2,1.6-3.1c0.5-1,1-2.1,1.5-3.1c0.5-1,1-2,1.4-2.9c1-0.2,1.8-0.6,2.6-1c0.8-0.4,1.5-0.9,2.1-1.4c0.6-0.5,1-1.1,1.3-1.7
			c0.3-0.6,0.5-1.2,0.5-1.9c0-0.8-0.2-1.4-0.7-1.7c-0.4-0.3-0.9-0.5-1.3-0.5c-0.4,0-0.8,0.1-1.2,0.3c-0.5,0.2-1,0.5-1.5,1.1
			c-0.5,0.5-1.1,1.2-1.8,2.1c-0.6,0.9-1.3,2-2.1,3.4l-1.6,0.3c-0.8,0.1-1.7,0.3-2.5,0.5c-0.8,0.2-1.6,0.3-2.4,0.5l1.4-2.5
			c2.1-3.6,4.1-6.7,5.9-9.4c1.9-2.7,3.6-4.9,5-6.6c1.4-1.7,2.6-3,3.5-3.9c0.9-0.9,1.3-1.3,1.3-1.3l-1-1.1
			C177.5,101.3,175.1,103.2,173,105.3z M105.7,136.3c-0.9-0.2-2-0.6-3.2-1c-1.4-0.4-2.9-1-4.4-1.6c-1.6-0.6-3.2-1.3-4.8-2.1
			c-1.6-0.8-3.1-1.6-4.5-2.5c1.7-2.4,3.3-4.7,4.8-6.7c1.5-2.1,3-4.1,4.4-5.9c0.9,1.7,1.8,3.4,2.6,5.2c0.8,1.9,1.6,3.8,2.3,5.7
			c0.7,1.9,1.3,3.6,1.8,5.2C105,134,105.4,135.3,105.7,136.3z M104.5,125.7c-0.7-1.9-1.4-3.8-2.3-5.7c-0.8-1.9-1.7-3.8-2.7-5.5
			c5.8-7.5,10.7-13.2,14.8-17c4.1-3.8,7.3-5.7,9.6-5.7c0.7,0,1.3,0.2,1.9,0.6c0.5,0.4,0.8,0.9,0.8,1.6c0,0.4-0.1,1-0.4,1.6
			c-0.2,0.7-0.7,1.5-1.2,2.5c-3.6,6-6.8,12.2-9.7,18.4c-2.8,6-5.4,12.1-7.8,18.3c-0.3-1.1-0.7-2.4-1.2-3.8
			C105.8,129.3,105.2,127.6,104.5,125.7z M96.6,114.3c-1.7,2.2-3.4,4.5-5,6.8c-1.6,2.2-3.2,4.5-4.8,6.7c-1.1-0.8-2.2-1.7-3.1-2.6
			c-1-1-1.9-2-2.6-3.1c-0.7-1.1-1.3-2.2-1.7-3.4c-0.4-1.2-0.6-2.4-0.6-3.7c0-1.2,0.2-2.4,0.6-3.4s0.9-2,1.6-2.7
			c0.7-0.8,1.5-1.4,2.4-1.8c0.9-0.4,2-0.7,3.1-0.7c1,0,1.9,0.2,2.8,0.6c0.9,0.4,1.8,1,2.7,1.7c0.9,0.7,1.7,1.6,2.5,2.6
			C95.1,112.2,95.9,113.2,96.6,114.3z M175.3,119.2c0.5-0.8,1-1.1,1.4-1.1c0.1,0,0.2,0,0.3,0.1c0.1,0.1,0.1,0.2,0.1,0.3
			c0,0.3,0,0.6-0.1,0.9c-0.1,0.3-0.3,0.6-0.5,0.9c-0.3,0.3-0.6,0.6-1.1,0.9c-0.5,0.3-1.1,0.6-1.8,0.9
			C174.3,120.9,174.8,119.9,175.3,119.2z"/>
		<path class="st0" d="M254.6,87.8c-3.1-1.6-7.6-1.2-10.2,0.9c-1.7,1.3-2.4,3.1-2,5.1l2.3-0.5c-0.2-1,0.2-1.9,1.1-2.7
			c1.9-1.5,5.5-1.8,7.7-0.6c1.6,0.8,2.3,2.2,2.3,4.1c-0.1,1.7-1,3.3-2.8,4.7c-3.2,2.4-17.1,9.5-59.7-1.6c-17.4-4.5-30-5.3-38.7-4.6
			l0,0c0,0-1.1,0.1-2.9,0.3c0.1,0,0.2,0,0.3,0c-0.1,0-0.2,0-0.3,0c-4.7,0.6-13.9,2.3-18.5,7.4c-1.3,1.4-2.4,2.9-3.2,4.7
			c-0.8,1.8-1.2,3.8-1.2,6.1c0,1.8,0.4,3.5,1.1,5c0.7,1.5,1.8,2.8,3.1,3.9c1.3,1.1,2.9,1.9,4.8,2.5c1.9,0.6,3.9,0.9,6.1,0.9
			c1.9,0,4-0.2,6.2-0.7c2.2-0.5,4.4-1.2,6.6-2.2l-0.8-1.7c0,0-0.3,0.1-0.9,0.4c-0.6,0.3-1.4,0.5-2.4,0.8c-1,0.3-2.1,0.6-3.4,0.8
			c-1.3,0.2-2.6,0.4-4,0.4c-1.6,0-3.1-0.2-4.6-0.6c-1.5-0.4-2.7-1.1-3.9-1.9c-1.1-0.8-2-1.9-2.7-3.2c-0.7-1.3-1-2.8-1-4.5
			c0-2.5,0.5-4.7,1.6-6.7c0.9-1.7,2-3.2,3.6-4.4c2.1-1.5,7-4.3,17.1-5c8.4-0.6,20.6,0.2,37.4,4.6c15.6,4.1,29.4,6.1,40.3,6.1
			c9.7,0,17.1-1.6,21.5-4.9c2.4-1.8,3.7-4.1,3.8-6.5C258.3,91.3,257,89,254.6,87.8z"/>
	</g>
	<g>
		<g>
			<circle class="st0" cx="34.5" cy="103.9" r="2.8"/>
			<circle class="st0" cx="225.9" cy="138.3" r="2.8"/>
		</g>
		<g>
			<path class="st0" d="M196.9,44.6c-4.8-4.1-10-7.7-15.4-10.8c0.4,0.1,0.9,0.1,1.3,0.2c13.2,1.1,24.8-7.4,25.4-7.8
				c0.3-0.2,0.4-0.6,0.4-0.9c0-0.4-0.3-0.7-0.6-0.8c-11.5-5.3-20.5-3.6-26.1-1.3c-5.4,2.2-8.6,5.4-9.3,6.2c-6.9-3-14.1-5.3-21.4-6.8
				c12.8-2.1,21.2-13.7,21.7-14.3c0.2-0.3,0.2-0.7,0.1-1c-0.1-0.3-0.4-0.5-0.8-0.6c-22-2.6-29.5,14.3-29.6,14.5c0,0,0,0,0,0.1
				c-3.6-0.4-7.2-0.6-10.9-0.6c-6.1,0-12,0.6-17.9,1.6c8.9-6.5,12.3-17.5,12.5-18.1c0.1-0.3,0-0.7-0.2-1c-0.2-0.3-0.6-0.4-0.9-0.3
				c-19.2,4.1-22.4,19.2-22.9,22.2c-27,8.3-49.9,27.7-62.2,53.9c-0.2,0.5,0,1.1,0.5,1.3c0.1,0.1,0.3,0.1,0.4,0.1
				c0.4,0,0.7-0.2,0.9-0.6c8.5-18.2,22.3-33.1,39-43.1c5.1,7.1,12.7,9.6,18.9,10.3c5.4,0.7,9.6,0,10-0.1c0.3-0.1,0.6-0.3,0.7-0.6
				c0.1-0.3,0.1-0.7-0.1-0.9C101.9,34.5,91.9,33.4,86,33.9c6.2-3.2,12.8-5.8,19.6-7.7c0.3-0.1,0.6-0.2,0.9-0.2
				c5.4-1.4,11-2.4,16.7-2.9c7.5,16.9,27.6,17.4,28.5,17.4c0,0,0,0,0,0c0.3,0,0.6-0.2,0.8-0.5c0.2-0.3,0.2-0.7,0-1
				c-4.7-9.6-11-14.1-16.5-16.1c21.6,1,42.3,9,58.9,22.8c0.6,23,23.4,33.8,23.6,33.9c0.1,0.1,0.3,0.1,0.4,0.1c0.2,0,0.4-0.1,0.6-0.2
				c0.3-0.2,0.5-0.5,0.4-0.9C218.2,52.4,200.9,45.8,196.9,44.6z M205.5,25.6c-4.4,2.8-18,10.1-30.7,4.4
				C178,27,188.8,18.8,205.5,25.6z M170,8.5c-3.1,3.7-12.7,13.6-25.1,12.3C146.9,17.3,154,7.4,170,8.5z M123.7,5.3
				c-1.8,4.5-7.5,16.5-19.4,19.2C105.1,20.6,108.7,9.2,123.7,5.3z M107.7,45.4c-4.6,0.4-17.8,0.4-25.1-9.1
				C86.3,35.3,97.8,33.4,107.7,45.4z M149.9,38.2c-4.8-0.5-18.4-2.9-24.5-15C129.4,22.9,141.6,23,149.9,38.2z M197,46.8
				c0,0,0.1,0,0.1,0c4.5,1.4,18.5,7.7,20.7,30.1C212.9,74.1,198.1,64.3,197,46.8z"/>
			<path class="st0" d="M64.4,196.1c4.8,4.1,10,7.7,15.4,10.8c-0.4-0.1-0.9-0.1-1.3-0.2c-13.2-1.1-24.8,7.4-25.4,7.8
				c-0.3,0.2-0.4,0.6-0.4,0.9c0,0.4,0.3,0.7,0.6,0.8c11.5,5.3,20.5,3.6,26.1,1.3c5.4-2.2,8.6-5.4,9.3-6.2c6.9,3,14.1,5.3,21.4,6.8
				c-12.8,2.1-21.2,13.7-21.7,14.3c-0.2,0.3-0.2,0.7-0.1,1c0.1,0.3,0.4,0.5,0.8,0.6c22,2.6,29.5-14.3,29.6-14.5c0,0,0,0,0-0.1
				c3.6,0.4,7.2,0.6,10.9,0.6c6.1,0,12-0.6,17.9-1.6c-8.9,6.5-12.3,17.5-12.5,18.1c-0.1,0.3,0,0.7,0.2,1c0.2,0.3,0.6,0.4,0.9,0.3
				c19.2-4.1,22.4-19.2,22.9-22.2c27-8.3,49.9-27.7,62.2-53.9c0.2-0.5,0-1.1-0.5-1.3c-0.1-0.1-0.3-0.1-0.4-0.1
				c-0.4,0-0.7,0.2-0.9,0.6c-8.5,18.2-22.3,33.1-39,43.1c-5.1-7.1-12.7-9.6-18.9-10.3c-5.4-0.7-9.6,0-10,0.1
				c-0.3,0.1-0.6,0.3-0.7,0.6c-0.1,0.3-0.1,0.7,0.1,0.9c8.4,11.1,18.3,12.2,24.2,11.7c-6.2,3.2-12.8,5.8-19.6,7.7
				c-0.3,0.1-0.6,0.2-0.9,0.2c-5.4,1.4-11,2.4-16.7,2.9c-7.5-16.9-27.6-17.4-28.5-17.4c0,0,0,0,0,0c-0.3,0-0.6,0.2-0.8,0.5
				c-0.2,0.3-0.2,0.7,0,1c4.7,9.6,11,14.1,16.5,16.1c-21.6-1-42.3-9-58.9-22.8c-0.6-23-23.4-33.8-23.6-33.9
				c-0.1-0.1-0.3-0.1-0.4-0.1c-0.2,0-0.4,0.1-0.6,0.2c-0.3,0.2-0.5,0.5-0.4,0.9C43.2,188.3,60.4,194.9,64.4,196.1z M55.8,215.2
				c4.4-2.8,18-10.1,30.7-4.4C83.4,213.8,72.5,222,55.8,215.2z M91.3,232.2c3.1-3.7,12.7-13.6,25.1-12.3
				C114.4,223.5,107.3,233.3,91.3,232.2z M137.7,235.5c1.8-4.5,7.5-16.5,19.4-19.2C156.3,220.2,152.6,231.5,137.7,235.5z
				 M153.6,195.3c4.6-0.4,17.8-0.4,25.1,9.1C175,205.5,163.5,207.3,153.6,195.3z M111.4,202.5c4.8,0.5,18.4,2.9,24.5,15
				C132,217.9,119.8,217.7,111.4,202.5z M64.4,194c0,0-0.1,0-0.1,0c-4.5-1.4-18.5-7.7-20.7-30.1C48.5,166.7,63.2,176.5,64.4,194z"/>
		</g>
	</g>
</g>
<g id="Noir" class="st1">
	<g class="st2">
		<path class="st3" d="M151.9,92.6c0.1,0,0.2,0,0.3,0C152.1,92.6,152,92.6,151.9,92.6z"/>
		<path class="st3" d="M173,105.3c-2.1,2.1-4,4.3-5.8,6.6c-1.8,2.3-3.4,4.6-4.9,7c-1.5,2.4-2.9,4.7-4.3,7c-1,0.3-2,0.6-3,0.9
			c-1,0.3-2.1,0.7-3.2,1l0.7,1.8c0.7-0.3,1.4-0.5,2.1-0.8c0.7-0.2,1.4-0.5,2.1-0.7c-1.4,2.4-2.9,4.6-4.4,6.7c-1.5,2.1-3,3.9-4.7,5.5
			c-1.6,1.6-3.5,2.8-5.4,3.7c-2,0.9-4.1,1.4-6.6,1.4c-1.7,0-3.3-0.2-4.8-0.7c-1.5-0.5-2.8-1.1-3.9-2c-1.1-0.8-2-1.8-2.7-2.9
			c-0.7-1.1-1-2.3-1-3.6c0-1.4,0.3-2.7,0.8-3.7c0.5-1,1.2-1.8,2.1-2.5c0.8-0.6,1.8-1.1,2.9-1.4s2.2-0.4,3.3-0.4c1,0,2.1,0.1,3.1,0.3
			c1.1,0.2,2.1,0.5,3.1,0.9c1,0.4,2,0.9,2.9,1.4c0.9,0.6,1.7,1.2,2.4,1.9l1.4-1c-0.9-1-1.8-2-2.9-2.8c-1.1-0.8-2.3-1.5-3.5-2.1
			c-1.2-0.6-2.5-1-3.8-1.3c-1.3-0.3-2.6-0.5-3.9-0.5c-1.6,0-3.1,0.2-4.5,0.6c-1.4,0.4-2.6,1-3.7,1.9c-1.1,0.8-1.9,1.9-2.5,3.1
			c-0.6,1.2-0.9,2.6-0.9,4.2c0,0.8,0.1,1.6,0.3,2.3c-3.2,0.6-6.1,0.5-7.6,0.3c-0.3,0-0.7-0.1-1-0.1c0.7-1.8,1.5-3.8,2.3-6
			c0.9-2.3,2-4.8,3.1-7.5c1.1-2.6,2.4-5.4,3.7-8.2c1.3-2.8,2.7-5.7,4.2-8.5c1.4-2.7,2.5-5,3.4-7c0.9-2,1.3-3.9,1.3-5.4
			c0-0.8-0.1-1.6-0.4-2.3c-0.3-0.7-0.7-1.2-1.2-1.7c-0.5-0.5-1-0.8-1.7-1.1c-0.6-0.3-1.3-0.4-1.9-0.4c-1.6,0-3.5,0.6-5.5,1.9
			c-2,1.2-4.1,2.9-6.3,5c-2.2,2.1-4.6,4.6-6.9,7.4c-2.3,2.7-4.7,5.6-7,8.7c-0.8-1.3-1.7-2.6-2.7-3.7c-1-1.3-2.1-2.3-3.3-3.2
			c-1.2-0.9-2.4-1.6-3.7-2.2c-1.3-0.5-2.7-0.8-4.1-0.8c-1.3,0-2.5,0.3-3.7,0.9c-1.1,0.6-2.1,1.4-3,2.4c-0.8,1-1.5,2.2-1.9,3.5
			c-0.5,1.3-0.7,2.7-0.7,4.2c0,1.8,0.3,3.5,0.8,5.1c0.5,1.6,1.2,3.1,2.1,4.5c0.9,1.4,2,2.7,3.3,3.9c1.2,1.1,2.5,2.2,3.9,3.2
			c-1.3,1.7-2.6,3.4-4.1,5c-0.7,0.8-1.5,1.6-2.2,2.3l-0.3,0.3c-0.1,0.1-14,13.2-34.7,0.8c-13.6-8.1-24.5-10.6-32.5-7.5
			c-5.7,2.2-8,6.8-8.6,8.1c-1.5,3.6-0.2,8,2.8,10.2c1,0.7,2.2,1.1,3.4,1.1c1.9,0,4.7-0.9,7.4-5.4l0.1-0.2l-1.8-1.4l-0.2,0.3
			c-1.5,2.5-3.1,3.9-4.8,4.3c-1.5,0.3-2.6-0.3-3.1-0.6c-2.4-1.7-2.9-4.9-2-7c0.5-1.1,2.4-4.9,7.3-6.8c9.2-3.6,21.8,2,30.8,7.3
			c11.5,6.9,21,6.2,26.9,4.4c6.4-1.9,10.1-5.4,10.3-5.6l0.3-0.4c0.8-0.8,1.6-1.6,2.4-2.5c1.6-1.8,3.1-3.6,4.4-5.4
			c1.4,0.9,3,1.8,4.5,2.5c1.6,0.8,3.3,1.5,4.9,2.2c1.6,0.6,3.3,1.2,4.9,1.7c1.5,0.5,2.9,0.9,4.3,1.3l-1.9,5.2l4.1,1.5l0.3,0.2v-0.4
			c0-0.1,0.1-0.3,0.5-1.5c0.3-1,0.8-2.3,1.5-4.1c0,0,0.6,0.1,1.5,0.2c0.6,0.1,1.2,0.1,1.6,0.2c2,0.2,4.7,0.2,7.4-0.2l0,0
			c0.1,0.1,0.1,0.2,0.2,0.3c1,1.6,2.4,2.9,4,4c1.6,1.1,3.5,1.9,5.6,2.5s4.1,0.8,6.1,0.8c3.1,0,5.9-0.5,8.2-1.5
			c2.4-1,4.6-2.4,6.6-4.3c2-1.8,3.9-4.1,5.7-6.6c1.8-2.6,3.6-5.5,5.4-8.7c1.2-0.3,2.3-0.6,3.4-0.8c1.1-0.3,2.2-0.5,3.3-0.7L169,126
			c-0.4,0.7-0.8,1.5-1.3,2.3c-0.5,0.8-1,1.6-1.5,2.3s-1,1.4-1.4,2c-0.4,0.6-0.8,1-1,1.3l2.6,2.4c0.6-0.9,1.2-1.8,1.7-2.8
			c0.6-1,1.1-2,1.6-3.1c0.5-1,1-2.1,1.5-3.1c0.5-1,1-2,1.4-2.9c1-0.2,1.8-0.6,2.6-1c0.8-0.4,1.5-0.9,2.1-1.4c0.6-0.5,1-1.1,1.3-1.7
			c0.3-0.6,0.5-1.2,0.5-1.9c0-0.8-0.2-1.4-0.7-1.7c-0.4-0.3-0.9-0.5-1.3-0.5c-0.4,0-0.8,0.1-1.2,0.3c-0.5,0.2-1,0.5-1.5,1.1
			c-0.5,0.5-1.1,1.2-1.8,2.1c-0.6,0.9-1.3,2-2.1,3.4l-1.6,0.3c-0.8,0.1-1.7,0.3-2.5,0.5c-0.8,0.2-1.6,0.3-2.4,0.5l1.4-2.5
			c2.1-3.6,4.1-6.7,5.9-9.4c1.9-2.7,3.6-4.9,5-6.6c1.4-1.7,2.6-3,3.5-3.9c0.9-0.9,1.3-1.3,1.3-1.3l-1-1.1
			C177.5,101.3,175.1,103.2,173,105.3z M105.7,136.3c-0.9-0.2-2-0.6-3.2-1c-1.4-0.4-2.9-1-4.4-1.6c-1.6-0.6-3.2-1.3-4.8-2.1
			c-1.6-0.8-3.1-1.6-4.5-2.5c1.7-2.4,3.3-4.7,4.8-6.7c1.5-2.1,3-4.1,4.4-5.9c0.9,1.7,1.8,3.4,2.6,5.2c0.8,1.9,1.6,3.8,2.3,5.7
			c0.7,1.9,1.3,3.6,1.8,5.2C105,134,105.4,135.3,105.7,136.3z M104.5,125.7c-0.7-1.9-1.4-3.8-2.3-5.7c-0.8-1.9-1.7-3.8-2.7-5.5
			c5.8-7.5,10.7-13.2,14.8-17c4.1-3.8,7.3-5.7,9.6-5.7c0.7,0,1.3,0.2,1.9,0.6c0.5,0.4,0.8,0.9,0.8,1.6c0,0.4-0.1,1-0.4,1.6
			c-0.2,0.7-0.7,1.5-1.2,2.5c-3.6,6-6.8,12.2-9.7,18.4c-2.8,6-5.4,12.1-7.8,18.3c-0.3-1.1-0.7-2.4-1.2-3.8
			C105.8,129.3,105.2,127.6,104.5,125.7z M96.6,114.3c-1.7,2.2-3.4,4.5-5,6.8c-1.6,2.2-3.2,4.5-4.8,6.7c-1.1-0.8-2.2-1.7-3.1-2.6
			c-1-1-1.9-2-2.6-3.1c-0.7-1.1-1.3-2.2-1.7-3.4c-0.4-1.2-0.6-2.4-0.6-3.7c0-1.2,0.2-2.4,0.6-3.4s0.9-2,1.6-2.7
			c0.7-0.8,1.5-1.4,2.4-1.8c0.9-0.4,2-0.7,3.1-0.7c1,0,1.9,0.2,2.8,0.6c0.9,0.4,1.8,1,2.7,1.7c0.9,0.7,1.7,1.6,2.5,2.6
			C95.1,112.2,95.9,113.2,96.6,114.3z M175.3,119.2c0.5-0.8,1-1.1,1.4-1.1c0.1,0,0.2,0,0.3,0.1c0.1,0.1,0.1,0.2,0.1,0.3
			c0,0.3,0,0.6-0.1,0.9c-0.1,0.3-0.3,0.6-0.5,0.9c-0.3,0.3-0.6,0.6-1.1,0.9c-0.5,0.3-1.1,0.6-1.8,0.9
			C174.3,120.9,174.8,119.9,175.3,119.2z"/>
		<path class="st3" d="M254.6,87.8c-3.1-1.6-7.6-1.2-10.2,0.9c-1.7,1.3-2.4,3.1-2,5.1l2.3-0.5c-0.2-1,0.2-1.9,1.1-2.7
			c1.9-1.5,5.5-1.8,7.7-0.6c1.6,0.8,2.3,2.2,2.3,4.1c-0.1,1.7-1,3.3-2.8,4.7c-3.2,2.4-17.1,9.5-59.7-1.6c-17.4-4.5-30-5.3-38.7-4.6
			l0,0c0,0-1.1,0.1-2.9,0.3c0.1,0,0.2,0,0.3,0c-0.1,0-0.2,0-0.3,0c-4.7,0.6-13.9,2.3-18.5,7.4c-1.3,1.4-2.4,2.9-3.2,4.7
			c-0.8,1.8-1.2,3.8-1.2,6.1c0,1.8,0.4,3.5,1.1,5c0.7,1.5,1.8,2.8,3.1,3.9c1.3,1.1,2.9,1.9,4.8,2.5c1.9,0.6,3.9,0.9,6.1,0.9
			c1.9,0,4-0.2,6.2-0.7c2.2-0.5,4.4-1.2,6.6-2.2l-0.8-1.7c0,0-0.3,0.1-0.9,0.4c-0.6,0.3-1.4,0.5-2.4,0.8c-1,0.3-2.1,0.6-3.4,0.8
			c-1.3,0.2-2.6,0.4-4,0.4c-1.6,0-3.1-0.2-4.6-0.6c-1.5-0.4-2.7-1.1-3.9-1.9c-1.1-0.8-2-1.9-2.7-3.2c-0.7-1.3-1-2.8-1-4.5
			c0-2.5,0.5-4.7,1.6-6.7c0.9-1.7,2-3.2,3.6-4.4c2.1-1.5,7-4.3,17.1-5c8.4-0.6,20.6,0.2,37.4,4.6c15.6,4.1,29.4,6.1,40.3,6.1
			c9.7,0,17.1-1.6,21.5-4.9c2.4-1.8,3.7-4.1,3.8-6.5C258.3,91.3,257,89,254.6,87.8z"/>
	</g>
	<g class="st2">
		<g>
			<circle class="st3" cx="34.5" cy="103.9" r="2.8"/>
			<circle class="st3" cx="225.9" cy="138.3" r="2.8"/>
		</g>
		<g>
			<path class="st3" d="M196.9,44.6c-4.8-4.1-10-7.7-15.4-10.8c0.4,0.1,0.9,0.1,1.3,0.2c13.2,1.1,24.8-7.4,25.4-7.8
				c0.3-0.2,0.4-0.6,0.4-0.9c0-0.4-0.3-0.7-0.6-0.8c-11.5-5.3-20.5-3.6-26.1-1.3c-5.4,2.2-8.6,5.4-9.3,6.2c-6.9-3-14.1-5.3-21.4-6.8
				c12.8-2.1,21.2-13.7,21.7-14.3c0.2-0.3,0.2-0.7,0.1-1c-0.1-0.3-0.4-0.5-0.8-0.6c-22-2.6-29.5,14.3-29.6,14.5c0,0,0,0,0,0.1
				c-3.6-0.4-7.2-0.6-10.9-0.6c-6.1,0-12,0.6-17.9,1.6c8.9-6.5,12.3-17.5,12.5-18.1c0.1-0.3,0-0.7-0.2-1c-0.2-0.3-0.6-0.4-0.9-0.3
				c-19.2,4.1-22.4,19.2-22.9,22.2c-27,8.3-49.9,27.7-62.2,53.9c-0.2,0.5,0,1.1,0.5,1.3c0.1,0.1,0.3,0.1,0.4,0.1
				c0.4,0,0.7-0.2,0.9-0.6c8.5-18.2,22.3-33.1,39-43.1c5.1,7.1,12.7,9.6,18.9,10.3c5.4,0.7,9.6,0,10-0.1c0.3-0.1,0.6-0.3,0.7-0.6
				c0.1-0.3,0.1-0.7-0.1-0.9C101.9,34.5,91.9,33.4,86,33.9c6.2-3.2,12.8-5.8,19.6-7.7c0.3-0.1,0.6-0.2,0.9-0.2
				c5.4-1.4,11-2.4,16.7-2.9c7.5,16.9,27.6,17.4,28.5,17.4c0,0,0,0,0,0c0.3,0,0.6-0.2,0.8-0.5c0.2-0.3,0.2-0.7,0-1
				c-4.7-9.6-11-14.1-16.5-16.1c21.6,1,42.3,9,58.9,22.8c0.6,23,23.4,33.8,23.6,33.9c0.1,0.1,0.3,0.1,0.4,0.1c0.2,0,0.4-0.1,0.6-0.2
				c0.3-0.2,0.5-0.5,0.4-0.9C218.2,52.4,200.9,45.8,196.9,44.6z M205.5,25.6c-4.4,2.8-18,10.1-30.7,4.4
				C178,27,188.8,18.8,205.5,25.6z M170,8.5c-3.1,3.7-12.7,13.6-25.1,12.3C146.9,17.3,154,7.4,170,8.5z M123.7,5.3
				c-1.8,4.5-7.5,16.5-19.4,19.2C105.1,20.6,108.7,9.2,123.7,5.3z M107.7,45.4c-4.6,0.4-17.8,0.4-25.1-9.1
				C86.3,35.3,97.8,33.4,107.7,45.4z M149.9,38.2c-4.8-0.5-18.4-2.9-24.5-15C129.4,22.9,141.6,23,149.9,38.2z M197,46.8
				c0,0,0.1,0,0.1,0c4.5,1.4,18.5,7.7,20.7,30.1C212.9,74.1,198.1,64.3,197,46.8z"/>
			<path class="st3" d="M64.4,196.1c4.8,4.1,10,7.7,15.4,10.8c-0.4-0.1-0.9-0.1-1.3-0.2c-13.2-1.1-24.8,7.4-25.4,7.8
				c-0.3,0.2-0.4,0.6-0.4,0.9c0,0.4,0.3,0.7,0.6,0.8c11.5,5.3,20.5,3.6,26.1,1.3c5.4-2.2,8.6-5.4,9.3-6.2c6.9,3,14.1,5.3,21.4,6.8
				c-12.8,2.1-21.2,13.7-21.7,14.3c-0.2,0.3-0.2,0.7-0.1,1c0.1,0.3,0.4,0.5,0.8,0.6c22,2.6,29.5-14.3,29.6-14.5c0,0,0,0,0-0.1
				c3.6,0.4,7.2,0.6,10.9,0.6c6.1,0,12-0.6,17.9-1.6c-8.9,6.5-12.3,17.5-12.5,18.1c-0.1,0.3,0,0.7,0.2,1c0.2,0.3,0.6,0.4,0.9,0.3
				c19.2-4.1,22.4-19.2,22.9-22.2c27-8.3,49.9-27.7,62.2-53.9c0.2-0.5,0-1.1-0.5-1.3c-0.1-0.1-0.3-0.1-0.4-0.1
				c-0.4,0-0.7,0.2-0.9,0.6c-8.5,18.2-22.3,33.1-39,43.1c-5.1-7.1-12.7-9.6-18.9-10.3c-5.4-0.7-9.6,0-10,0.1
				c-0.3,0.1-0.6,0.3-0.7,0.6c-0.1,0.3-0.1,0.7,0.1,0.9c8.4,11.1,18.3,12.2,24.2,11.7c-6.2,3.2-12.8,5.8-19.6,7.7
				c-0.3,0.1-0.6,0.2-0.9,0.2c-5.4,1.4-11,2.4-16.7,2.9c-7.5-16.9-27.6-17.4-28.5-17.4c0,0,0,0,0,0c-0.3,0-0.6,0.2-0.8,0.5
				c-0.2,0.3-0.2,0.7,0,1c4.7,9.6,11,14.1,16.5,16.1c-21.6-1-42.3-9-58.9-22.8c-0.6-23-23.4-33.8-23.6-33.9
				c-0.1-0.1-0.3-0.1-0.4-0.1c-0.2,0-0.4,0.1-0.6,0.2c-0.3,0.2-0.5,0.5-0.4,0.9C43.2,188.3,60.4,194.9,64.4,196.1z M55.8,215.2
				c4.4-2.8,18-10.1,30.7-4.4C83.4,213.8,72.5,222,55.8,215.2z M91.3,232.2c3.1-3.7,12.7-13.6,25.1-12.3
				C114.4,223.5,107.3,233.3,91.3,232.2z M137.7,235.5c1.8-4.5,7.5-16.5,19.4-19.2C156.3,220.2,152.6,231.5,137.7,235.5z
				 M153.6,195.3c4.6-0.4,17.8-0.4,25.1,9.1C175,205.5,163.5,207.3,153.6,195.3z M111.4,202.5c4.8,0.5,18.4,2.9,24.5,15
				C132,217.9,119.8,217.7,111.4,202.5z M64.4,194c0,0-0.1,0-0.1,0c-4.5-1.4-18.5-7.7-20.7-30.1C48.5,166.7,63.2,176.5,64.4,194z"/>
		</g>
	</g>
</g>
<g id="Couleur" class="st1">
	<g class="st2">
		<path class="st3" d="M151.8,92.6c0.1,0,0.2,0,0.3,0C152,92.6,151.9,92.6,151.8,92.6z"/>
		<path class="st3" d="M172.9,105.3c-2.1,2.1-4,4.3-5.8,6.6c-1.8,2.3-3.4,4.6-4.9,7c-1.5,2.4-2.9,4.7-4.3,7c-1,0.3-2,0.6-3,0.9
			c-1,0.3-2.1,0.7-3.2,1l0.7,1.8c0.7-0.3,1.4-0.5,2.1-0.8c0.7-0.2,1.4-0.5,2.1-0.7c-1.4,2.4-2.9,4.6-4.4,6.7c-1.5,2.1-3,3.9-4.7,5.5
			c-1.6,1.6-3.5,2.8-5.4,3.7c-2,0.9-4.1,1.4-6.6,1.4c-1.7,0-3.3-0.2-4.8-0.7c-1.5-0.5-2.8-1.1-3.9-2c-1.1-0.8-2-1.8-2.7-2.9
			c-0.7-1.1-1-2.3-1-3.6c0-1.4,0.3-2.7,0.8-3.7c0.5-1,1.2-1.8,2.1-2.5c0.8-0.6,1.8-1.1,2.9-1.4s2.2-0.4,3.3-0.4c1,0,2.1,0.1,3.1,0.3
			c1.1,0.2,2.1,0.5,3.1,0.9c1,0.4,2,0.9,2.9,1.4c0.9,0.6,1.7,1.2,2.4,1.9l1.4-1c-0.9-1-1.8-2-2.9-2.8c-1.1-0.8-2.3-1.5-3.5-2.1
			c-1.2-0.6-2.5-1-3.8-1.3c-1.3-0.3-2.6-0.5-3.9-0.5c-1.6,0-3.1,0.2-4.5,0.6c-1.4,0.4-2.6,1-3.7,1.9c-1.1,0.8-1.9,1.9-2.5,3.1
			c-0.6,1.2-0.9,2.6-0.9,4.2c0,0.8,0.1,1.6,0.3,2.3c-3.2,0.6-6.1,0.5-7.6,0.3c-0.3,0-0.7-0.1-1-0.1c0.7-1.8,1.5-3.8,2.3-6
			c0.9-2.3,2-4.8,3.1-7.5c1.1-2.6,2.4-5.4,3.7-8.2c1.3-2.8,2.7-5.7,4.2-8.5c1.4-2.7,2.5-5,3.4-7c0.9-2,1.3-3.9,1.3-5.4
			c0-0.8-0.1-1.6-0.4-2.3c-0.3-0.7-0.7-1.2-1.2-1.7c-0.5-0.5-1-0.8-1.7-1.1c-0.6-0.3-1.3-0.4-1.9-0.4c-1.6,0-3.5,0.6-5.5,1.9
			c-2,1.2-4.1,2.9-6.3,5c-2.2,2.1-4.6,4.6-6.9,7.4c-2.3,2.7-4.7,5.6-7,8.7c-0.8-1.3-1.7-2.6-2.7-3.7c-1-1.3-2.1-2.3-3.3-3.2
			c-1.2-0.9-2.4-1.6-3.7-2.2c-1.3-0.5-2.7-0.8-4.1-0.8c-1.3,0-2.5,0.3-3.7,0.9c-1.1,0.6-2.1,1.4-3,2.4c-0.8,1-1.5,2.2-1.9,3.5
			c-0.5,1.3-0.7,2.7-0.7,4.2c0,1.8,0.3,3.5,0.8,5.1c0.5,1.6,1.2,3.1,2.1,4.5c0.9,1.4,2,2.7,3.3,3.9c1.2,1.1,2.5,2.2,3.9,3.2
			c-1.3,1.7-2.6,3.4-4.1,5c-0.7,0.8-1.5,1.6-2.2,2.3l-0.3,0.3c-0.1,0.1-14,13.2-34.7,0.8c-13.6-8.1-24.5-10.6-32.5-7.5
			c-5.7,2.2-8,6.8-8.6,8.1c-1.5,3.6-0.2,8,2.8,10.2c1,0.7,2.2,1.1,3.4,1.1c1.9,0,4.7-0.9,7.4-5.4l0.1-0.2l-1.8-1.4l-0.2,0.3
			c-1.5,2.5-3.1,3.9-4.8,4.3c-1.5,0.3-2.6-0.3-3.1-0.6c-2.4-1.7-2.9-4.9-2-7c0.5-1.1,2.4-4.9,7.3-6.8c9.2-3.6,21.8,2,30.8,7.3
			c11.5,6.9,21,6.2,26.9,4.4c6.4-1.9,10.1-5.4,10.3-5.6l0.3-0.4c0.8-0.8,1.6-1.6,2.4-2.5c1.6-1.8,3.1-3.6,4.4-5.4
			c1.4,0.9,3,1.8,4.5,2.5c1.6,0.8,3.3,1.5,4.9,2.2c1.6,0.6,3.3,1.2,4.9,1.7c1.5,0.5,2.9,0.9,4.3,1.3l-1.9,5.2l4.1,1.5l0.3,0.2v-0.4
			c0-0.1,0.1-0.3,0.5-1.5c0.3-1,0.8-2.3,1.5-4.1c0,0,0.6,0.1,1.5,0.2c0.6,0.1,1.2,0.1,1.6,0.2c2,0.2,4.7,0.2,7.4-0.2l0,0
			c0.1,0.1,0.1,0.2,0.2,0.3c1,1.6,2.4,2.9,4,4c1.6,1.1,3.5,1.9,5.6,2.5s4.1,0.8,6.1,0.8c3.1,0,5.9-0.5,8.2-1.5
			c2.4-1,4.6-2.4,6.6-4.3c2-1.8,3.9-4.1,5.7-6.6c1.8-2.6,3.6-5.5,5.4-8.7c1.2-0.3,2.3-0.6,3.4-0.8c1.1-0.3,2.2-0.5,3.3-0.7l-0.5,1.1
			c-0.4,0.7-0.8,1.5-1.3,2.3c-0.5,0.8-1,1.6-1.5,2.3s-1,1.4-1.4,2c-0.4,0.6-0.8,1-1,1.3l2.6,2.4c0.6-0.9,1.2-1.8,1.7-2.8
			c0.6-1,1.1-2,1.6-3.1c0.5-1,1-2.1,1.5-3.1c0.5-1,1-2,1.4-2.9c1-0.2,1.8-0.6,2.6-1c0.8-0.4,1.5-0.9,2.1-1.4c0.6-0.5,1-1.1,1.3-1.7
			c0.3-0.6,0.5-1.2,0.5-1.9c0-0.8-0.2-1.4-0.7-1.7c-0.4-0.3-0.9-0.5-1.3-0.5c-0.4,0-0.8,0.1-1.2,0.3c-0.5,0.2-1,0.5-1.5,1.1
			c-0.5,0.5-1.1,1.2-1.8,2.1c-0.6,0.9-1.3,2-2.1,3.4l-1.6,0.3c-0.8,0.1-1.7,0.3-2.5,0.5c-0.8,0.2-1.6,0.3-2.4,0.5l1.4-2.5
			c2.1-3.6,4.1-6.7,5.9-9.4c1.9-2.7,3.6-4.9,5-6.6c1.4-1.7,2.6-3,3.5-3.9c0.9-0.9,1.3-1.3,1.3-1.3l-1-1.1
			C177.3,101.3,175,103.2,172.9,105.3z M105.5,136.3c-0.9-0.2-2-0.6-3.2-1c-1.4-0.4-2.9-1-4.4-1.6c-1.6-0.6-3.2-1.3-4.8-2.1
			c-1.6-0.8-3.1-1.6-4.5-2.5c1.7-2.4,3.3-4.7,4.8-6.7c1.5-2.1,3-4.1,4.4-5.9c0.9,1.7,1.8,3.4,2.6,5.2c0.8,1.9,1.6,3.8,2.3,5.7
			c0.7,1.9,1.3,3.6,1.8,5.2C104.9,134,105.2,135.3,105.5,136.3z M104.4,125.7c-0.7-1.9-1.4-3.8-2.3-5.7c-0.8-1.9-1.7-3.8-2.7-5.5
			c5.8-7.5,10.7-13.2,14.8-17c4.1-3.8,7.3-5.7,9.6-5.7c0.7,0,1.3,0.2,1.9,0.6c0.5,0.4,0.8,0.9,0.8,1.6c0,0.4-0.1,1-0.4,1.6
			c-0.2,0.7-0.7,1.5-1.2,2.5c-3.6,6-6.8,12.2-9.7,18.4c-2.8,6-5.4,12.1-7.8,18.3c-0.3-1.1-0.7-2.4-1.2-3.8
			C105.6,129.3,105,127.6,104.4,125.7z M96.5,114.3c-1.7,2.2-3.4,4.5-5,6.8c-1.6,2.2-3.2,4.5-4.8,6.7c-1.1-0.8-2.2-1.7-3.1-2.6
			c-1-1-1.9-2-2.6-3.1c-0.7-1.1-1.3-2.2-1.7-3.4c-0.4-1.2-0.6-2.4-0.6-3.7c0-1.2,0.2-2.4,0.6-3.4s0.9-2,1.6-2.7
			c0.7-0.8,1.5-1.4,2.4-1.8c0.9-0.4,2-0.7,3.1-0.7c1,0,1.9,0.2,2.8,0.6c0.9,0.4,1.8,1,2.7,1.7c0.9,0.7,1.7,1.6,2.5,2.6
			C95,112.2,95.7,113.2,96.5,114.3z M175.2,119.2c0.5-0.8,1-1.1,1.4-1.1c0.1,0,0.2,0,0.3,0.1c0.1,0.1,0.1,0.2,0.1,0.3
			c0,0.3,0,0.6-0.1,0.9c-0.1,0.3-0.3,0.6-0.5,0.9c-0.3,0.3-0.6,0.6-1.1,0.9c-0.5,0.3-1.1,0.6-1.8,0.9
			C174.1,120.9,174.7,119.9,175.2,119.2z"/>
		<path class="st3" d="M254.5,87.8c-3.1-1.6-7.6-1.2-10.2,0.9c-1.7,1.3-2.4,3.1-2,5.1l2.3-0.5c-0.2-1,0.2-1.9,1.1-2.7
			c1.9-1.5,5.5-1.8,7.7-0.6c1.6,0.8,2.3,2.2,2.3,4.1c-0.1,1.7-1,3.3-2.8,4.7c-3.2,2.4-17.1,9.5-59.7-1.6c-17.4-4.5-30-5.3-38.7-4.6
			l0,0c0,0-1.1,0.1-2.9,0.3c0.1,0,0.2,0,0.3,0c-0.1,0-0.2,0-0.3,0c-4.7,0.6-13.9,2.3-18.5,7.4c-1.3,1.4-2.4,2.9-3.2,4.7
			c-0.8,1.8-1.2,3.8-1.2,6.1c0,1.8,0.4,3.5,1.1,5c0.7,1.5,1.8,2.8,3.1,3.9c1.3,1.1,2.9,1.9,4.8,2.5c1.9,0.6,3.9,0.9,6.1,0.9
			c1.9,0,4-0.2,6.2-0.7c2.2-0.5,4.4-1.2,6.6-2.2l-0.8-1.7c0,0-0.3,0.1-0.9,0.4c-0.6,0.3-1.4,0.5-2.4,0.8c-1,0.3-2.1,0.6-3.4,0.8
			c-1.3,0.2-2.6,0.4-4,0.4c-1.6,0-3.1-0.2-4.6-0.6c-1.5-0.4-2.7-1.1-3.9-1.9c-1.1-0.8-2-1.9-2.7-3.2c-0.7-1.3-1-2.8-1-4.5
			c0-2.5,0.5-4.7,1.6-6.7c0.9-1.7,2-3.2,3.6-4.4c2.1-1.5,7-4.3,17.1-5c8.4-0.6,20.6,0.2,37.4,4.6c15.6,4.1,29.4,6.1,40.3,6.1
			c9.7,0,17.1-1.6,21.5-4.9c2.4-1.8,3.7-4.1,3.8-6.5C258.2,91.3,256.9,89,254.5,87.8z"/>
	</g>
	<g class="st2">
		<g>
			<circle class="st4" cx="34.3" cy="103.9" r="2.8"/>
			<circle class="st4" cx="225.8" cy="138.3" r="2.8"/>
		</g>
		<g>
			<path class="st4" d="M196.8,44.6c-4.8-4.1-10-7.7-15.4-10.8c0.4,0.1,0.9,0.1,1.3,0.2c13.2,1.1,24.8-7.4,25.4-7.8
				c0.3-0.2,0.4-0.6,0.4-0.9c0-0.4-0.3-0.7-0.6-0.8c-11.5-5.3-20.5-3.6-26.1-1.3c-5.4,2.2-8.6,5.4-9.3,6.2c-6.9-3-14.1-5.3-21.4-6.8
				c12.8-2.1,21.2-13.7,21.7-14.3c0.2-0.3,0.2-0.7,0.1-1c-0.1-0.3-0.4-0.5-0.8-0.6c-22-2.6-29.5,14.3-29.6,14.5c0,0,0,0,0,0.1
				c-3.6-0.4-7.2-0.6-10.9-0.6c-6.1,0-12,0.6-17.9,1.6c8.9-6.5,12.3-17.5,12.5-18.1c0.1-0.3,0-0.7-0.2-1c-0.2-0.3-0.6-0.4-0.9-0.3
				c-19.2,4.1-22.4,19.2-22.9,22.2c-27,8.3-49.9,27.7-62.2,53.9c-0.2,0.5,0,1.1,0.5,1.3c0.1,0.1,0.3,0.1,0.4,0.1
				c0.4,0,0.7-0.2,0.9-0.6c8.5-18.2,22.3-33.1,39-43.1c5.1,7.1,12.7,9.6,18.9,10.3c5.4,0.7,9.6,0,10-0.1c0.3-0.1,0.6-0.3,0.7-0.6
				c0.1-0.3,0.1-0.7-0.1-0.9c-8.4-11.1-18.3-12.2-24.2-11.7c6.2-3.2,12.8-5.8,19.6-7.7c0.3-0.1,0.6-0.2,0.9-0.2
				c5.4-1.4,11-2.4,16.7-2.9c7.5,16.9,27.6,17.4,28.5,17.4c0,0,0,0,0,0c0.3,0,0.6-0.2,0.8-0.5c0.2-0.3,0.2-0.7,0-1
				c-4.7-9.6-11-14.1-16.5-16.1c21.6,1,42.3,9,58.9,22.8c0.6,23,23.4,33.8,23.6,33.9c0.1,0.1,0.3,0.1,0.4,0.1c0.2,0,0.4-0.1,0.6-0.2
				c0.3-0.2,0.5-0.5,0.4-0.9C218.1,52.4,200.8,45.8,196.8,44.6z M205.4,25.6c-4.4,2.8-18,10.1-30.7,4.4
				C177.8,27,188.7,18.8,205.4,25.6z M169.9,8.5c-3.1,3.7-12.7,13.6-25.1,12.3C146.8,17.3,153.9,7.4,169.9,8.5z M123.5,5.3
				c-1.8,4.5-7.5,16.5-19.4,19.2C105,20.6,108.6,9.2,123.5,5.3z M107.6,45.4c-4.6,0.4-17.8,0.4-25.1-9.1
				C86.2,35.3,97.7,33.4,107.6,45.4z M149.8,38.2c-4.8-0.5-18.4-2.9-24.5-15C129.2,22.9,141.4,23,149.8,38.2z M196.8,46.8
				c0,0,0.1,0,0.1,0c4.5,1.4,18.5,7.7,20.7,30.1C212.7,74.1,198,64.3,196.8,46.8z"/>
			<path class="st4" d="M64.3,196.1c4.8,4.1,10,7.7,15.4,10.8c-0.4-0.1-0.9-0.1-1.3-0.2c-13.2-1.1-24.8,7.4-25.4,7.8
				c-0.3,0.2-0.4,0.6-0.4,0.9c0,0.4,0.3,0.7,0.6,0.8c11.5,5.3,20.5,3.6,26.1,1.3c5.4-2.2,8.6-5.4,9.3-6.2c6.9,3,14.1,5.3,21.4,6.8
				c-12.8,2.1-21.2,13.7-21.7,14.3c-0.2,0.3-0.2,0.7-0.1,1c0.1,0.3,0.4,0.5,0.8,0.6c22,2.6,29.5-14.3,29.6-14.5c0,0,0,0,0-0.1
				c3.6,0.4,7.2,0.6,10.9,0.6c6.1,0,12-0.6,17.9-1.6c-8.9,6.5-12.3,17.5-12.5,18.1c-0.1,0.3,0,0.7,0.2,1c0.2,0.3,0.6,0.4,0.9,0.3
				c19.2-4.1,22.4-19.2,22.9-22.2c27-8.3,49.9-27.7,62.2-53.9c0.2-0.5,0-1.1-0.5-1.3c-0.1-0.1-0.3-0.1-0.4-0.1
				c-0.4,0-0.7,0.2-0.9,0.6c-8.5,18.2-22.3,33.1-39,43.1c-5.1-7.1-12.7-9.6-18.9-10.3c-5.4-0.7-9.6,0-10,0.1
				c-0.3,0.1-0.6,0.3-0.7,0.6c-0.1,0.3-0.1,0.7,0.1,0.9c8.4,11.1,18.3,12.2,24.2,11.7c-6.2,3.2-12.8,5.8-19.6,7.7
				c-0.3,0.1-0.6,0.2-0.9,0.2c-5.4,1.4-11,2.4-16.7,2.9c-7.5-16.9-27.6-17.4-28.5-17.4c0,0,0,0,0,0c-0.3,0-0.6,0.2-0.8,0.5
				c-0.2,0.3-0.2,0.7,0,1c4.7,9.6,11,14.1,16.5,16.1c-21.6-1-42.3-9-58.9-22.8c-0.6-23-23.4-33.8-23.6-33.9
				c-0.1-0.1-0.3-0.1-0.4-0.1c-0.2,0-0.4,0.1-0.6,0.2c-0.3,0.2-0.5,0.5-0.4,0.9C43,188.3,60.3,194.9,64.3,196.1z M55.7,215.2
				c4.4-2.8,18-10.1,30.7-4.4C83.2,213.8,72.4,222,55.7,215.2z M91.2,232.2c3.1-3.7,12.7-13.6,25.1-12.3
				C114.3,223.5,107.2,233.3,91.2,232.2z M137.5,235.5c1.8-4.5,7.5-16.5,19.4-19.2C156.1,220.2,152.5,231.5,137.5,235.5z
				 M153.5,195.3c4.6-0.4,17.8-0.4,25.1,9.1C174.9,205.5,163.4,207.3,153.5,195.3z M111.3,202.5c4.8,0.5,18.4,2.9,24.5,15
				C131.9,217.9,119.6,217.7,111.3,202.5z M64.2,194c0,0-0.1,0-0.1,0c-4.5-1.4-18.5-7.7-20.7-30.1C48.3,166.7,63.1,176.5,64.2,194z"
				/>
		</g>
	</g>
</g>
</svg>
